<svg width="450" height="450" viewBox="0 0 450 450" fill="none" xmlns="http://www.w3.org/2000/svg">
<path fill-rule="evenodd" clip-rule="evenodd" d="M228.817 4.79535C278.897 -7.64731 339.985 4.12228 375.666 40.1251C410.58 75.3539 389.845 133.07 402.612 180.157C414.227 222.996 462.757 261.015 446.818 302.548C430.81 344.262 371.771 349.086 330.262 368.688C297.007 384.393 264.35 395.411 228.817 405.499C175.927 420.515 119.496 468.892 71.9558 442.021C25.6378 415.84 45.9242 345.683 33.9131 295.333C23.3216 250.935 -14.2898 206.032 5.82079 164.787C25.9955 123.411 90.3026 128.892 128.395 101.562C167.331 73.6268 181.781 16.4819 228.817 4.79535Z" fill="#C4C4C4"/>
</svg>
