<svg width="450" height="450" viewBox="0 0 450 450" fill="none" xmlns="http://www.w3.org/2000/svg">
<path fill-rule="evenodd" clip-rule="evenodd" d="M256.165 28.2111C297.827 36.6107 339.987 43.1601 373.465 67.4564C406.015 91.0799 429.087 124.221 439.355 161.159C449.181 196.512 430.26 231.055 429.075 267.527C427.201 325.192 476.148 396.857 430.412 436.358C386.698 474.111 315.874 422.085 256.165 416.861C204.452 412.337 150.298 430.301 104.455 407.841C55.3519 383.785 11.3425 342.317 1.31128 292.004C-8.39547 243.319 38.4555 202.883 54.151 155.537C70.2966 106.832 48.7205 39.9851 94.4003 11.194C140.286 -17.7272 201.821 17.2549 256.165 28.2111Z" fill="#C4C4C4"/>
</svg>
