<svg width="450" height="450" viewBox="0 0 450 450" fill="none" xmlns="http://www.w3.org/2000/svg">
<path fill-rule="evenodd" clip-rule="evenodd" d="M213.392 7.37588C259.863 6.94446 307.505 -9.282 349.342 11.4017C395.222 34.0842 444.646 72.3572 449.695 124.2C454.764 176.247 395.221 208.571 373.139 255.753C355.39 293.677 360.241 339.871 333.722 372.002C302.407 409.945 261.481 456.216 213.392 449.309C164.46 442.281 153.243 373.061 115.353 340.637C81.6368 311.785 23.6428 312.726 5.78468 271.65C-12.1879 230.311 16.3349 184.781 28.7106 141.347C41.5639 96.2379 41.7425 41.0995 79.2243 13.9095C116.655 -13.2431 167.497 7.80196 213.392 7.37588Z" fill="#C4C4C4"/>
</svg>
