<svg width="450" height="450" viewBox="0 0 450 450" fill="none" xmlns="http://www.w3.org/2000/svg">
<path fill-rule="evenodd" clip-rule="evenodd" d="M217.635 0.138335C270.637 3.99604 268.379 89.3435 309.402 122.182C346.036 151.506 412.753 135.99 436.929 175.679C461.099 215.357 448.837 270.836 423.82 310.015C400.71 346.206 348.372 347.35 312.069 371.218C277.671 393.834 258.045 436.258 217.635 445.576C172.54 455.975 123.12 447.768 83.8527 423.844C43.0861 399.006 7.12999 359.745 0.705032 313.408C-5.42948 269.165 29.8823 231.796 51.7828 192.552C69.3235 161.12 91.6779 135.465 115.305 108.055C148.438 69.6154 166.178 -3.60689 217.635 0.138335Z" fill="#C4C4C4"/>
</svg>
