<svg width="450" height="450" viewBox="0 0 450 450" fill="none" xmlns="http://www.w3.org/2000/svg">
<path fill-rule="evenodd" clip-rule="evenodd" d="M243.723 0.0472205C294.783 -1.73016 326.678 47.0778 364.352 77.2174C397.198 103.494 439.762 125.918 448.691 164.022C457.367 201.043 420.492 232.626 409.327 269.135C397.197 308.801 410.006 354.595 380.612 386.643C347.557 422.681 296.433 453.44 243.723 449.689C191.532 445.976 161.193 398.704 122.139 368.252C87.8498 341.516 49.1929 319.226 29.7587 282.852C8.45041 242.971 -11.9802 195.659 8.42322 155.419C28.5559 115.712 90.2157 111.574 129.886 85.379C170.776 58.3788 192.494 1.83046 243.723 0.0472205Z" fill="#C4C4C4"/>
</svg>
