<svg width="450" height="450" viewBox="0 0 450 450" fill="none" xmlns="http://www.w3.org/2000/svg">
<path fill-rule="evenodd" clip-rule="evenodd" d="M202.983 5.20866C251.515 12.6145 286.726 46.283 327.453 71.6027C369.965 98.0326 430.151 111.513 446.034 156.314C461.917 201.115 426.417 246.221 404.457 288.808C385.323 325.914 361.304 359.087 327.566 386.054C290.81 415.434 251.637 452.687 202.983 449.847C154.671 447.027 124.858 402.397 89.4107 372.152C58.79 346.026 25.9399 321.806 10.9452 285.995C-4.61615 248.831 -0.50778 209.163 4.60952 169.63C11.0156 120.14 3.97897 61.804 44.2901 28.3923C85.031 -5.37569 148.819 -3.05668 202.983 5.20866Z" fill="#C4C4C4"/>
</svg>
