<svg width="450" height="450" viewBox="0 0 450 450" fill="none" xmlns="http://www.w3.org/2000/svg">
<path fill-rule="evenodd" clip-rule="evenodd" d="M196.555 3.36636C249.26 0.408867 308.359 -8.44775 349.631 23.9108C390.559 55.9987 386.687 116.193 402.883 165.132C419.088 214.096 466.081 263.336 444.376 310.197C422.356 357.74 351.953 353.512 304.628 377.27C267.256 396.032 237.526 425.696 196.555 434.611C146.68 445.463 87.7826 463.635 47.0646 433.312C6.32893 402.975 13.0444 341.796 5.25165 292.144C-1.21728 250.927 -2.44209 211.011 5.75316 170.092C15.0634 123.605 19.6473 71.8825 55.669 40.4062C92.9144 7.86072 146.804 6.15808 196.555 3.36636Z" fill="#C4C4C4"/>
</svg>
