<svg width="450" height="450" viewBox="0 0 450 450" fill="none" xmlns="http://www.w3.org/2000/svg">
<path fill-rule="evenodd" clip-rule="evenodd" d="M246.727 0.547647C284.376 4.18838 315.53 28.7598 346.276 52.3819C377.27 76.195 407.717 100.832 424.847 137.397C444.126 178.549 454.435 224.301 448.167 269.875C441.074 321.452 425.008 374.639 387.642 407.912C349.215 442.13 296.507 453.162 246.727 449.249C199.235 445.517 158.61 416.876 120.036 386.882C81.3934 356.835 44.1783 323.889 25.1026 276.921C4.67654 226.627 -11.4044 166.691 10.4703 117.105C31.8674 68.6021 87.8397 54.1822 133.246 31.7812C169.621 13.8352 206.86 -3.30768 246.727 0.547647Z" fill="#C4C4C4"/>
</svg>
