<svg width="450" height="450" viewBox="0 0 450 450" fill="none" xmlns="http://www.w3.org/2000/svg">
<path fill-rule="evenodd" clip-rule="evenodd" d="M202.437 0.00144586C245.324 0.214127 285.122 24.2571 317.176 55.1345C347.059 83.9207 355.276 127.69 374.457 165.707C399.626 215.594 464.749 258.889 446.966 312.381C428.993 366.444 351.157 351.505 303.972 377.726C267.301 398.105 243.219 441.838 202.437 448.269C158.626 455.177 113.216 440.97 76.8962 413.534C40.1316 385.761 11.0757 344.415 1.99835 296.856C-6.61094 251.749 14.4725 208.469 29.5358 165.396C43.7933 124.628 56.7719 82.8443 86.9328 53.9927C119.157 23.1676 159.455 -0.211709 202.437 0.00144586Z" fill="#C4C4C4"/>
</svg>
