<svg width="450" height="450" viewBox="0 0 450 450" fill="none" xmlns="http://www.w3.org/2000/svg">
<path fill-rule="evenodd" clip-rule="evenodd" d="M214.324 38.1171C266.463 39.1408 322.766 -17.8377 365.023 13.4319C407.255 44.6825 374.348 116.417 389.214 167.532C403.466 216.539 455.693 253.133 449.491 303.869C443.056 356.502 402.043 400.215 357.46 427.276C315.03 453.031 263.654 446.028 214.324 446.615C164.302 447.21 109.586 460.278 68.7469 430.714C27.7745 401.054 16.0083 345.364 5.18354 295.216C-4.72748 249.3 1.11931 203.856 9.81216 157.683C19.8292 104.476 13.3866 34.3111 59.3639 7.43082C106.191 -19.9464 160.402 37.0585 214.324 38.1171Z" fill="#C4C4C4"/>
</svg>
