<svg width="450" height="450" viewBox="0 0 450 450" fill="none" xmlns="http://www.w3.org/2000/svg">
<path fill-rule="evenodd" clip-rule="evenodd" d="M190.901 0.0349078C231.748 1.58023 246.048 61.9581 282.261 82.1028C329.334 108.289 398.562 87.7261 430.155 133.13C461.98 178.866 449.709 245.329 433.584 299.571C417.367 354.119 387.849 407.409 340.518 434.643C295.541 460.523 241.414 447.723 190.901 439.209C147.835 431.95 105.041 419.905 72.1975 389.418C41.1686 360.615 26.9792 318.39 15.455 276.351C4.27285 235.559 -8.22458 191.513 7.20083 152.316C22.203 114.195 64.0356 100.419 94.6911 75.0066C126.834 48.3612 150.164 -1.50627 190.901 0.0349078Z" fill="#C4C4C4"/>
</svg>
