<svg width="450" height="450" viewBox="0 0 450 450" fill="none" xmlns="http://www.w3.org/2000/svg">
<path fill-rule="evenodd" clip-rule="evenodd" d="M185.368 0.0269907C239.568 1.48368 254.604 66.4086 296.354 95.5481C333.918 121.765 390.771 125.935 416.087 161.055C444.293 200.185 462.895 252.441 439.121 293.606C415.534 334.448 345.32 332.296 301.739 359.051C258.037 385.88 239.046 443.83 185.368 449.391C131.602 454.96 79.5239 421.458 46.1509 385.529C16.6458 353.763 26.7863 309.544 18.5699 269.815C11.8417 237.281 -6.57412 206.27 2.43189 174.129C11.9004 140.337 41.789 115.443 69.1112 89.4407C104.762 55.5119 131.595 -1.41821 185.368 0.0269907Z" fill="#C4C4C4"/>
</svg>
