<svg width="450" height="450" viewBox="0 0 450 450" fill="none" xmlns="http://www.w3.org/2000/svg">
<path fill-rule="evenodd" clip-rule="evenodd" d="M228.062 26.68C273.803 15.6825 321.149 -13.0063 364.095 6.79582C408.776 27.3976 437.224 78.1061 447.762 127.981C457.828 175.624 431.385 220.519 419.2 267.618C406.169 317.991 411.554 378.434 374.062 412.86C335.84 447.956 276.75 458.497 228.062 443.125C182.991 428.895 172.149 366.925 134.577 337.25C98.2026 308.521 38.144 316.197 15.1978 275.002C-8.33109 232.762 -2.90501 174.484 20.2626 132.025C42.1041 91.9972 91.3106 82.9492 130.96 62.8486C162.654 46.7811 193.737 34.9328 228.062 26.68Z" fill="#C4C4C4"/>
</svg>
