<svg width="450" height="450" viewBox="0 0 450 450" fill="none" xmlns="http://www.w3.org/2000/svg">
<path fill-rule="evenodd" clip-rule="evenodd" d="M234.533 0.0793896C284.317 -1.78087 328.04 29.371 366.802 59.8784C403.859 89.0427 443.403 123.212 449.488 169.256C455.311 213.319 409.782 246.149 397.057 288.81C383.652 333.748 407.819 391.067 373.547 423.841C339.258 456.632 281.844 452.331 234.533 444.232C192.375 437.014 157.84 410.543 126.981 381.63C99.7528 356.118 88.0241 321.687 69.501 289.604C44.945 247.072 -7.75541 211.42 0.962981 163.361C9.59304 115.788 69.1562 97.6502 109.431 69.4955C149.402 41.5532 185.381 1.916 234.533 0.0793896Z" fill="#C4C4C4"/>
</svg>
