<svg width="450" height="450" viewBox="0 0 450 450" fill="none" xmlns="http://www.w3.org/2000/svg">
<path fill-rule="evenodd" clip-rule="evenodd" d="M230.597 1.06857C278.448 -5.49935 325.125 19.1886 364.144 48.28C403.121 77.3402 440.987 115.108 448.852 163.793C456.371 210.336 425.294 252.192 403.829 293.943C386.09 328.45 366.761 361.787 335.559 384.168C304.752 406.264 267.268 409.592 230.597 418.195C180.989 429.833 130.152 464.485 83.675 443.261C36.1558 421.562 3.52708 366.094 0.155574 312.963C-3.04228 262.568 43.86 226.55 67.0962 181.996C85.0757 147.52 94.8436 110.376 120.771 81.6851C152.127 46.9883 184.822 7.35165 230.597 1.06857Z" fill="#C4C4C4"/>
</svg>
