<svg width="375" height="42" viewBox="0 0 375 42" fill="none" xmlns="http://www.w3.org/2000/svg">
<path id="title" fill-rule="evenodd" clip-rule="evenodd" d="M0 0H375V42H0V0ZM255.216 26.864L254.297 26.9754L256.084 30.4558L257.871 26.9754L256.957 26.864V26.1199H259.886V26.864L259.166 26.9754L256.634 31.6512V33.7488L257.59 33.9129V34.6512H254.531V33.9129L255.486 33.7488V31.5633L253.002 26.9754L252.287 26.864V26.1199H255.216V26.864ZM225.464 33.825L224.831 33.9129V34.6512H227.275V33.9129L226.63 33.8015L227.21 32.2312H230.626L231.189 33.8015L230.544 33.9129V34.6512H232.993V33.9129L232.367 33.825L229.437 26.1199H228.447L225.464 33.825ZM230.275 31.2644H227.568L228.915 27.6023H228.951L230.275 31.2644ZM199.223 26.864L198.356 26.9988L199.452 31.698L199.61 32.7644L199.645 32.7703L199.873 31.698L201.444 26.1199H202.463L204.039 31.698L204.274 32.7937H204.309L204.479 31.698L205.551 26.9988L204.678 26.864V26.1199H207.391V26.864L206.705 26.9519L204.848 34.6512H203.817L202.129 28.7332L201.977 27.9656H201.942L201.795 28.7332L200.084 34.6512H199.059L197.202 26.9519L196.516 26.864V26.1199H199.223V26.864ZM178.945 26.864V26.1199H177.99H175.881V26.864L176.836 27.0281V32.6883L176.801 32.7L172.699 26.1199H171.545H170.59V26.864L171.545 27.0281V33.7488L170.59 33.9129V34.6512H173.654V33.9129L172.699 33.7488V28.0769L172.734 28.0652L176.836 34.6512H177.99V27.0281L178.945 26.864ZM151.314 30.45C151.314 31.6922 150.957 32.7234 150.242 33.5437C149.531 34.364 148.609 34.7742 147.476 34.7742C146.375 34.7742 145.48 34.364 144.793 33.5437C144.105 32.7234 143.761 31.6922 143.761 30.45V30.3269C143.761 29.0887 144.105 28.0574 144.793 27.2332C145.48 26.409 146.375 25.9969 147.476 25.9969C148.609 25.9969 149.531 26.409 150.242 27.2332C150.957 28.0574 151.314 29.0887 151.314 30.3269V30.45ZM150.16 30.3152C150.16 29.323 149.922 28.5144 149.445 27.8894C148.972 27.2605 148.316 26.9461 147.476 26.9461C146.672 26.9461 146.043 27.2605 145.59 27.8894C145.14 28.5183 144.916 29.3269 144.916 30.3152V30.45C144.916 31.45 145.14 32.2644 145.59 32.8933C146.043 33.5183 146.672 33.8308 147.476 33.8308C148.328 33.8308 148.988 33.5183 149.457 32.8933C149.926 32.2683 150.16 31.4539 150.16 30.45V30.3152ZM122.669 28.739H123.484V27.2215C123.238 26.909 122.869 26.6277 122.376 26.3777C121.884 26.1238 121.314 25.9969 120.665 25.9969C119.533 25.9969 118.617 26.407 117.917 27.2273C117.218 28.0437 116.869 29.0769 116.869 30.3269V30.45C116.869 31.6922 117.224 32.7234 117.935 33.5437C118.646 34.364 119.556 34.7742 120.665 34.7742C121.314 34.7742 121.884 34.6512 122.376 34.4051C122.869 34.1551 123.238 33.8719 123.484 33.5555V32.0379H122.669L122.453 33.2449C122.281 33.4207 122.037 33.5691 121.72 33.6902C121.404 33.8113 121.052 33.8719 120.665 33.8719C119.837 33.8719 119.189 33.5496 118.72 32.9051C118.255 32.2566 118.023 31.4383 118.023 30.45V30.3152C118.023 29.3269 118.261 28.5125 118.738 27.8719C119.214 27.2273 119.896 26.9051 120.783 26.9051C121.162 26.9051 121.488 26.9637 121.761 27.0808C122.035 27.198 122.265 27.3484 122.453 27.532L122.669 28.739ZM254.584 9.21289V8.46875H257.648V9.21289L256.693 9.37695V16.0977L257.648 16.2617V17H254.584V16.2617L255.539 16.0977V9.37695L254.584 9.21289ZM231.142 9.0957C230.646 8.68164 229.933 8.47461 229.003 8.47461H226.214H225.259V9.21289L226.214 9.37695V16.0977L225.259 16.2617V17H228.324V16.2617L227.368 16.0977V13.1914H229.22C229.673 13.1914 230.035 13.332 230.304 13.6133C230.574 13.8945 230.708 14.2676 230.708 14.7324V15.3945C230.708 15.8398 230.802 16.2188 230.99 16.5312C231.181 16.8438 231.501 17 231.951 17H232.572V16.2441L232.29 16.209C232.138 16.1855 232.029 16.1113 231.962 15.9863C231.896 15.8613 231.863 15.668 231.863 15.4062V14.7207C231.863 14.2168 231.759 13.793 231.552 13.4492C231.349 13.1055 231.015 12.8574 230.55 12.7051C230.98 12.5215 231.31 12.2695 231.54 11.9492C231.771 11.6289 231.886 11.2617 231.886 10.8477C231.886 10.0898 231.638 9.50586 231.142 9.0957ZM228.886 12.2832H227.368V9.37695H229.003C229.593 9.37695 230.029 9.50781 230.31 9.76953C230.591 10.0312 230.732 10.3867 230.732 10.8359C230.732 11.3086 230.585 11.668 230.292 11.9141C229.999 12.1602 229.531 12.2832 228.886 12.2832ZM200.424 9.21289V8.46875H203.489V9.21289L202.534 9.37695V16.0977L203.489 16.2617V17H200.424V16.2617L201.379 16.0977V9.37695L200.424 9.21289ZM171.305 16.1738L170.672 16.2617V17H173.115V16.2617L172.471 16.1504L173.051 14.5801H176.467L177.029 16.1504L176.385 16.2617V17H178.834V16.2617L178.207 16.1738L175.277 8.46875H174.287L171.305 16.1738ZM176.115 13.6133H173.408L174.756 9.95117H174.791L176.115 13.6133ZM146.433 8.46875V9.21289L145.478 9.37695V14.252C145.478 14.8965 145.662 15.3867 146.029 15.7227C146.396 16.0547 146.881 16.2207 147.482 16.2207C148.115 16.2207 148.625 16.0547 149.011 15.7227C149.398 15.3906 149.592 14.9004 149.592 14.252V9.37695L148.636 9.21289V8.46875H150.746H151.701V9.21289L150.746 9.37695V14.252C150.746 15.1777 150.443 15.8887 149.838 16.3848C149.236 16.877 148.451 17.123 147.482 17.123C146.541 17.123 145.779 16.877 145.197 16.3848C144.615 15.8887 144.324 15.1777 144.324 14.252V9.37695L143.369 9.21289V8.46875H144.324H146.433ZM122.564 9.0957C122.068 8.68164 121.355 8.47461 120.425 8.47461H117.636H116.681V9.21289L117.636 9.37695V16.0977L116.681 16.2617V17H119.745V16.2617L118.79 16.0977V13.1914H120.642C121.095 13.1914 121.456 13.332 121.726 13.6133C121.995 13.8945 122.13 14.2676 122.13 14.7324V15.3945C122.13 15.8398 122.224 16.2188 122.412 16.5312C122.603 16.8438 122.923 17 123.372 17H123.994V16.2441L123.712 16.209C123.56 16.1855 123.451 16.1113 123.384 15.9863C123.318 15.8613 123.285 15.668 123.285 15.4062V14.7207C123.285 14.2168 123.181 13.793 122.974 13.4492C122.771 13.1055 122.437 12.8574 121.972 12.7051C122.402 12.5215 122.732 12.2695 122.962 11.9492C123.193 11.6289 123.308 11.2617 123.308 10.8477C123.308 10.0898 123.06 9.50586 122.564 9.0957ZM120.308 12.2832H118.79V9.37695H120.425C121.015 9.37695 121.451 9.50781 121.732 9.76953C122.013 10.0312 122.154 10.3867 122.154 10.8359C122.154 11.3086 122.007 11.668 121.714 11.9141C121.421 12.1602 120.953 12.2832 120.308 12.2832Z" fill="white"/>
</svg>
